<svg width="190" height="42" viewBox="0 0 190 42" fill="none" xmlns="http://www.w3.org/2000/svg">
<path d="M19.8617 6.06885C19.8617 6.06885 19.8079 8.42373 20.9921 10.7382C20.9921 10.7382 14.6406 9.58099 11.4245 12.5414L9.39258 11.6937C9.40603 11.6667 11.7071 6.7013 19.8617 6.06885Z" fill="#F34133"/>
<path d="M8.71974 10.967C8.71974 10.967 10.5229 12.4742 13.0796 12.999C13.0796 12.999 8.20839 17.2378 8.51789 21.5977L6.60707 22.6607C6.59361 22.6607 4.13108 17.7491 8.71974 10.967Z" fill="#2DB473"/>
<path d="M5.46338 22.7953C5.46338 22.7953 7.77789 22.3512 9.7829 20.6826C9.7829 20.6826 10.0117 27.1417 13.5911 29.6446L13.2009 31.8111C13.2009 31.8246 7.83172 30.6404 5.46338 22.7953Z" fill="#1276C5"/>
<path d="M12.4875 32.9011C12.4875 32.9011 13.6179 30.8422 13.6313 28.2317C13.6313 28.2317 18.7448 32.1744 22.9567 31.0306L24.3696 32.7127C24.3562 32.7127 20.0366 36.0768 12.4875 32.9011Z" fill="#D6E025"/>
<path d="M24.6657 33.9643C24.6657 33.9643 23.818 31.7709 21.8264 30.0888C21.8264 30.0888 28.1375 28.7163 29.9676 24.7466H32.161C32.161 24.7332 31.9726 30.2234 24.6657 33.9643Z" fill="#875E3B"/>
<path d="M33.224 25.1096C33.224 25.1096 30.9499 24.5445 28.42 25.2038C28.42 25.2038 30.923 19.2561 28.7295 15.4748C28.7295 15.4613 29.981 13.6851 29.981 13.6716C30.0079 13.6985 34.3678 17.0088 33.224 25.1096Z" fill="#323293"/>
<path d="M31.5688 12.6088C31.5688 12.6088 29.5235 14.089 28.3124 16.6323C28.3124 16.6323 25.1501 10.4289 20.5076 9.60802L20.1578 8.51805L19.9694 7.45499C19.9694 7.45499 25.6615 6.00169 31.5688 12.6088Z" fill="#F7931D"/>
<path d="M14.6271 5.86702C16.2472 5.86702 17.5606 4.55365 17.5606 2.93351C17.5606 1.31338 16.2472 0 14.6271 0C13.007 0 11.6936 1.31338 11.6936 2.93351C11.6936 4.55365 13.007 5.86702 14.6271 5.86702Z" fill="#F34133"/>
<path d="M2.93351 16.3631C4.55365 16.3631 5.86702 15.0497 5.86702 13.4296C5.86702 11.8095 4.55365 10.4961 2.93351 10.4961C1.31338 10.4961 0 11.8095 0 13.4296C0 15.0497 1.31338 16.3631 2.93351 16.3631Z" fill="#2DB473"/>
<path d="M3.71403 31.9996C5.33416 31.9996 6.64754 30.6862 6.64754 29.0661C6.64754 27.4459 5.33416 26.1326 3.71403 26.1326C2.09389 26.1326 0.780518 27.4459 0.780518 29.0661C0.780518 30.6862 2.09389 31.9996 3.71403 31.9996Z" fill="#1276C5"/>
<path d="M16.6726 41.5401C18.2928 41.5401 19.6062 40.2267 19.6062 38.6066C19.6062 36.9865 18.2928 35.6731 16.6726 35.6731C15.0525 35.6731 13.7391 36.9865 13.7391 38.6066C13.7391 40.2267 15.0525 41.5401 16.6726 41.5401Z" fill="#D6E025"/>
<path d="M31.6766 37.1265C33.2967 37.1265 34.6101 35.8132 34.6101 34.193C34.6101 32.5729 33.2967 31.2595 31.6766 31.2595C30.0564 31.2595 28.743 32.5729 28.743 34.193C28.743 35.8132 30.0564 37.1265 31.6766 37.1265Z" fill="#875E3B"/>
<path d="M40.6567 20.793C41.214 19.2717 40.4326 17.5866 38.9112 17.0293C37.3899 16.472 35.7049 17.2534 35.1476 18.7747C34.5902 20.296 35.3717 21.9811 36.893 22.5384C38.4143 23.0958 40.0994 22.3143 40.6567 20.793Z" fill="#323293"/>
<path d="M30.7211 8.74666C32.3412 8.74666 33.6546 7.43329 33.6546 5.81315C33.6546 4.19302 32.3412 2.87964 30.7211 2.87964C29.101 2.87964 27.7876 4.19302 27.7876 5.81315C27.7876 7.43329 29.101 8.74666 30.7211 8.74666Z" fill="#F7931D"/>
<path d="M59.9315 8.48853V22.3342H56.9775V15.6143L55.5794 18.9517H53.3695L51.9714 15.6143V22.3342H49.0173V8.48853H51.9714L54.4744 15.2535L57 8.48853H59.9315Z" fill="white"/>
<path d="M68.8839 8.48853V11.2396H64.6896V14.126H68.1623V16.8997H64.6896V19.5831H68.8839V22.3568H61.7356V8.51107H68.8839V8.48853Z" fill="white"/>
<path d="M74.7471 15.028H78.9639V18.6586C78.9639 19.8763 78.5354 20.8234 77.7011 21.4999C76.8667 22.1764 75.8746 22.5146 74.7245 22.5146C73.5519 22.5146 72.5372 22.1764 71.6803 21.4773C70.8234 20.8008 70.3949 19.8537 70.3949 18.6586V12.1642C70.3949 10.9465 70.8008 9.99936 71.6351 9.32286C72.4469 8.64636 73.4391 8.30811 74.5666 8.30811C75.7167 8.30811 76.7089 8.64635 77.5658 9.3454C78.4227 10.0219 78.8286 10.969 78.8286 12.1867V12.5475L75.8746 13.1113V12.1642C75.8746 11.8259 75.7393 11.5553 75.4912 11.3524C75.2206 11.1494 74.9274 11.0592 74.5666 11.0592C74.2284 11.0592 73.9578 11.1494 73.7098 11.3524C73.4617 11.5553 73.3489 11.8259 73.3489 12.1867V18.6811C73.3489 19.0194 73.4842 19.29 73.7774 19.4929C74.048 19.6959 74.3863 19.7861 74.7471 19.7861C75.1079 19.7861 75.401 19.6959 75.6716 19.4929C75.9196 19.29 76.055 19.0194 76.055 18.6586V17.8017H74.7696V15.028H74.7471Z" fill="white"/>
<path d="M82.8875 8.48853H85.6612L88.7505 22.3342H85.7965L85.5033 20.8685H83.0228L82.7297 22.3342H79.7756L82.8875 8.48853ZM84.2856 14.577L83.5866 18.1174H84.9621L84.2856 14.577Z" fill="white"/>
<path d="M103.949 18.3429V18.6586C103.949 19.8763 103.521 20.8234 102.687 21.4999C101.852 22.1764 100.86 22.5146 99.71 22.5146C98.5374 22.5146 97.5226 22.1764 96.6657 21.4773C95.8088 20.8008 95.3804 19.8537 95.3804 18.6586V12.1642C95.3804 10.9465 95.7863 9.99936 96.6206 9.32286C97.4324 8.64636 98.4246 8.30811 99.5521 8.30811C100.702 8.30811 101.694 8.64635 102.551 9.3454C103.408 10.0219 103.814 10.969 103.814 12.1867V12.5475L100.86 13.1113V12.1642C100.86 11.8259 100.725 11.5553 100.477 11.3524C100.206 11.1494 99.9129 11.0592 99.5521 11.0592C99.2139 11.0592 98.9433 11.1494 98.6952 11.3524C98.4472 11.5553 98.3344 11.8259 98.3344 12.1867V18.6811C98.3344 19.0194 98.4697 19.29 98.7629 19.4929C99.0335 19.6959 99.3717 19.7861 99.7325 19.7861C100.093 19.7861 100.386 19.6959 100.657 19.4929C100.905 19.29 101.04 19.0194 101.04 18.6586V17.6889L103.949 18.3429Z" fill="white"/>
<path d="M105.235 12.1642C105.235 10.9465 105.663 9.99936 106.497 9.32286C107.332 8.64636 108.324 8.30811 109.474 8.30811C110.647 8.30811 111.661 8.64635 112.518 9.3454C113.375 10.0219 113.804 10.969 113.804 12.1867V18.6811C113.804 19.8988 113.375 20.8459 112.541 21.5224C111.706 22.1989 110.714 22.5372 109.564 22.5372C108.392 22.5372 107.377 22.1989 106.52 21.4999C105.663 20.8234 105.235 19.8763 105.235 18.6811V12.1642ZM108.189 18.6586C108.189 18.9968 108.324 19.2674 108.617 19.4704C108.888 19.6733 109.226 19.7635 109.587 19.7635C109.948 19.7635 110.241 19.6733 110.511 19.4704C110.759 19.2674 110.895 18.9968 110.895 18.636V12.1642C110.895 11.8259 110.759 11.5553 110.466 11.3524C110.196 11.1494 109.857 11.0592 109.497 11.0592C109.136 11.0592 108.843 11.1494 108.572 11.3524C108.324 11.5553 108.189 11.8259 108.189 12.1867V18.6586Z" fill="white"/>
<path d="M126.386 8.48853V22.3342H123.432V15.6143L122.034 18.9517H119.824L118.426 15.6143V22.3342H115.472V8.48853H118.426L120.929 15.2535L123.455 8.48853H126.386Z" fill="white"/>
<path d="M131.099 8.48838V18.6584C131.099 18.9967 131.235 19.2673 131.528 19.4702C131.799 19.6732 132.137 19.7634 132.498 19.7634C132.858 19.7634 133.152 19.6732 133.422 19.4702C133.693 19.2673 133.805 18.9967 133.805 18.6359V8.46582H136.737V18.6359C136.737 19.8536 136.309 20.8007 135.474 21.4772C134.64 22.1537 133.648 22.4919 132.498 22.4919C131.325 22.4919 130.31 22.1537 129.453 21.4546C128.596 20.7781 128.168 19.831 128.168 18.6359V8.46582H131.099V8.48838Z" fill="white"/>
<path d="M143.75 8.48853H146.704V22.3342H143.75L141.427 16.2232V22.3342H138.473V8.48853H141.427L143.75 14.5996V8.48853Z" fill="white"/>
<path d="M148.531 8.48853H151.485V22.3342H148.531V8.48853Z" fill="white"/>
<path d="M153.311 8.48853H156.265H157.483C158.655 8.48853 159.67 8.82678 160.527 9.50328C161.384 10.1798 161.812 11.1269 161.812 12.3446V18.4782C161.812 19.6959 161.384 20.643 160.55 21.3195C159.715 21.996 158.723 22.3342 157.573 22.3342H153.356V8.48853H153.311ZM156.265 19.5831H157.55C157.911 19.5831 158.204 19.4929 158.475 19.29C158.723 19.1096 158.858 18.839 158.858 18.4782V12.3446C158.858 12.0063 158.723 11.7357 158.452 11.5328C158.182 11.3298 157.866 11.2396 157.483 11.2396H156.265V19.5831Z" fill="white"/>
<path d="M165.736 8.48853H168.51L171.599 22.3342H168.645L168.352 20.8685H165.872L165.578 22.3342H162.647L165.736 8.48853ZM167.134 14.577L166.435 18.1174H167.811L167.134 14.577Z" fill="white"/>
<path d="M172.749 8.48853H175.703H176.921C178.094 8.48853 179.108 8.82678 179.965 9.50328C180.822 10.1798 181.251 11.1269 181.251 12.3446V18.4782C181.251 19.6959 180.822 20.643 179.988 21.3195C179.153 21.996 178.161 22.3342 177.011 22.3342H172.794V8.48853H172.749ZM175.703 19.5831H176.989C177.349 19.5831 177.643 19.4929 177.913 19.29C178.161 19.1096 178.297 18.839 178.297 18.4782V12.3446C178.297 12.0063 178.161 11.7357 177.891 11.5328C177.62 11.3298 177.304 11.2396 176.921 11.2396H175.703V19.5831Z" fill="white"/>
<path d="M190 8.48853V11.2396H185.806V14.126H189.278V16.8997H185.806V19.5831H190V22.3568H182.852V8.51107H190V8.48853Z" fill="white"/>
<path d="M64.667 29.5276H65.1856V33.1807H66.9896V33.6317H64.667V29.5276Z" fill="white"/>
<path d="M70.079 31.557C70.079 30.2491 70.8006 29.4373 71.8379 29.4373C72.8752 29.4373 73.5968 30.2491 73.5968 31.557C73.5968 32.8649 72.8752 33.6992 71.8379 33.6992C70.8006 33.6992 70.079 32.8649 70.079 31.557ZM73.0556 31.557C73.0556 30.5422 72.582 29.9108 71.8379 29.9108C71.0937 29.9108 70.6202 30.5422 70.6202 31.557C70.6202 32.5717 71.0937 33.2482 71.8379 33.2482C72.582 33.2482 73.0556 32.5717 73.0556 31.557Z" fill="white"/>
<path d="M77.949 29.9334H76.7087V29.4824H79.7079V29.9334H78.4676V33.6091H77.949V29.9334Z" fill="white"/>
<path d="M83.0452 29.5276H85.4129V29.9786H83.5638V31.2639H85.1198V31.7149H83.5638V33.2032H85.4806V33.6542H83.0452V29.5276Z" fill="white"/>
<path d="M88.9534 29.5276H90.2387C91.0731 29.5276 91.6819 29.8207 91.6819 30.6776C91.6819 31.4894 91.0731 31.8953 90.2387 31.8953H89.472V33.6317H88.9534V29.5276ZM90.1711 31.4443C90.8025 31.4443 91.1633 31.1963 91.1633 30.6551C91.1633 30.1139 90.8025 29.9335 90.1711 29.9335H89.472V31.4669H90.1711V31.4443ZM90.1485 31.7375L90.5544 31.4669L91.8172 33.6091H91.2309L90.1485 31.7375Z" fill="white"/>
<path d="M95.1321 29.5276H95.6507V33.6317H95.1321V29.5276Z" fill="white"/>
<path d="M100.228 29.5276H100.815L102.213 33.6317H101.649L100.927 31.3316C100.77 30.8806 100.657 30.4296 100.522 29.956H100.499C100.364 30.4296 100.251 30.8806 100.093 31.3316L99.3715 33.6317H98.8303L100.228 29.5276ZM99.5745 31.963H101.469V32.3689H99.5745V31.963Z" fill="white"/>
<path d="M108.978 33.0904L109.293 32.7296C109.587 33.0453 109.993 33.2482 110.421 33.2482C110.962 33.2482 111.278 32.9776 111.278 32.5717C111.278 32.1433 110.985 32.008 110.601 31.8501L110.015 31.5795C109.632 31.4217 109.181 31.1285 109.181 30.5197C109.181 29.8883 109.722 29.4373 110.466 29.4373C110.962 29.4373 111.391 29.6402 111.684 29.9559L111.413 30.2942C111.165 30.0461 110.849 29.9108 110.489 29.9108C110.038 29.9108 109.722 30.1363 109.722 30.5197C109.722 30.9256 110.083 31.0609 110.398 31.1962L110.985 31.4442C111.458 31.6472 111.842 31.9403 111.842 32.5492C111.842 33.2031 111.3 33.7218 110.444 33.7218C109.835 33.6992 109.316 33.4737 108.978 33.0904Z" fill="white"/>
<path d="M115.224 29.5276H117.592V29.9786H115.743V31.2639H117.299V31.7149H115.743V33.2032H117.66V33.6542H115.224V29.5276Z" fill="white"/>
<path d="M121.132 29.5276H121.764L122.553 31.7149C122.643 31.9855 122.756 32.2787 122.846 32.5718H122.869C122.959 32.2787 123.049 31.9855 123.162 31.7149L123.951 29.5276H124.582V33.6317H124.086V31.3767C124.086 31.0159 124.131 30.5198 124.154 30.159H124.131L123.816 31.1061L123.049 33.2258H122.711L121.944 31.1061L121.628 30.159H121.606C121.628 30.5198 121.674 31.0159 121.674 31.3767V33.6317H121.2V29.5276H121.132Z" fill="white"/>
<path d="M131.844 33.0904L132.159 32.7296C132.452 33.0453 132.858 33.2483 133.287 33.2483C133.828 33.2483 134.144 32.9777 134.144 32.5718C134.144 32.1433 133.85 32.008 133.467 31.8502L132.881 31.557C132.497 31.3992 132.046 31.106 132.046 30.4972C132.046 29.8658 132.588 29.4148 133.332 29.4148C133.828 29.4148 134.256 29.6177 134.55 29.9334L134.279 30.2717C134.031 30.0236 133.715 29.8883 133.354 29.8883C132.903 29.8883 132.588 30.1138 132.588 30.4972C132.588 30.9031 132.948 31.0384 133.264 31.1737L133.85 31.4218C134.324 31.6247 134.707 31.9178 134.707 32.5267C134.707 33.1806 134.166 33.6993 133.309 33.6993C132.723 33.6993 132.204 33.4738 131.844 33.0904Z" fill="white"/>
<path d="M138.112 29.5276H140.48V29.9786H138.631V31.2639H140.187V31.7149H138.631V33.2032H140.548V33.6542H138.112V29.5276Z" fill="white"/>
<path d="M143.772 31.557C143.772 30.2266 144.562 29.4148 145.667 29.4148C146.23 29.4148 146.614 29.6628 146.862 29.9109L146.569 30.2491C146.366 30.0236 146.095 29.8658 145.689 29.8658C144.855 29.8658 144.336 30.4972 144.336 31.5345C144.336 32.5718 144.832 33.2032 145.712 33.2032C146.005 33.2032 146.298 33.113 146.456 32.9551V31.8953H145.576V31.4668H146.929V33.2032C146.659 33.4738 146.208 33.6768 145.667 33.6768C144.539 33.6993 143.772 32.91 143.772 31.557Z" fill="white"/>
<path d="M150.492 29.5276H151.778C152.612 29.5276 153.221 29.8207 153.221 30.6776C153.221 31.4894 152.612 31.8953 151.778 31.8953H151.011V33.6317H150.492V29.5276ZM151.688 31.4443C152.319 31.4443 152.68 31.1963 152.68 30.6551C152.68 30.1139 152.319 29.9335 151.688 29.9335H150.989V31.4669H151.688V31.4443ZM151.665 31.7375L152.071 31.4669L153.334 33.6091H152.747L151.665 31.7375Z" fill="white"/>
<path d="M156.648 29.5276H159.016V29.9786H157.167V31.2639H158.723V31.7149H157.167V33.2032H159.084V33.6542H156.648V29.5276Z" fill="white"/>
<path d="M162.557 29.5276H163.594C164.857 29.5276 165.533 30.2717 165.533 31.5571C165.533 32.865 164.857 33.6317 163.616 33.6317H162.557V29.5276ZM163.549 33.1807C164.518 33.1807 164.992 32.5718 164.992 31.5345C164.992 30.4972 164.518 29.9335 163.549 29.9335H163.075V33.1807H163.549Z" fill="white"/>
<path d="M168.78 31.557C168.78 30.2491 169.502 29.4373 170.539 29.4373C171.576 29.4373 172.298 30.2491 172.298 31.557C172.298 32.8649 171.576 33.6992 170.539 33.6992C169.502 33.6992 168.78 32.8649 168.78 31.557ZM171.757 31.557C171.757 30.5422 171.283 29.9108 170.539 29.9108C169.795 29.9108 169.321 30.5422 169.321 31.557C169.321 32.5717 169.795 33.2482 170.539 33.2482C171.283 33.2482 171.757 32.5717 171.757 31.557Z" fill="white"/>
</svg>
