<svg width="35" height="34" viewBox="0 0 35 34" fill="none" xmlns="http://www.w3.org/2000/svg">
<rect width="34" height="34" transform="translate(0.939941)" fill="#2C3E50" fill-opacity="0.667"/>
<path d="M17.9478 12.6108C16.0838 12.6108 14.5803 14.1138 14.5803 15.9771C14.5803 17.8403 16.0838 19.3433 17.9478 19.3433C19.8118 19.3433 21.3153 17.8403 21.3153 15.9771C21.3153 14.1138 19.8118 12.6108 17.9478 12.6108ZM17.9478 18.1655C16.7433 18.1655 15.7585 17.1841 15.7585 15.9771C15.7585 14.77 16.7403 13.7886 17.9478 13.7886C19.1553 13.7886 20.1371 14.77 20.1371 15.9771C20.1371 17.1841 19.1524 18.1655 17.9478 18.1655ZM22.2385 12.4731C22.2385 12.9097 21.8868 13.2583 21.4531 13.2583C21.0164 13.2583 20.6676 12.9067 20.6676 12.4731C20.6676 12.0396 21.0193 11.688 21.4531 11.688C21.8868 11.688 22.2385 12.0396 22.2385 12.4731ZM24.4689 13.27C24.419 12.2183 24.1787 11.2866 23.4079 10.519C22.64 9.75146 21.708 9.51123 20.6559 9.4585C19.5715 9.39697 16.3212 9.39697 15.2368 9.4585C14.1876 9.5083 13.2556 9.74854 12.4848 10.5161C11.714 11.2837 11.4766 12.2153 11.4238 13.2671C11.3623 14.3511 11.3623 17.6001 11.4238 18.6841C11.4737 19.7358 11.714 20.6675 12.4848 21.4351C13.2556 22.2026 14.1847 22.4429 15.2368 22.4956C16.3212 22.5571 19.5715 22.5571 20.6559 22.4956C21.708 22.4458 22.64 22.2056 23.4079 21.4351C24.1758 20.6675 24.4161 19.7358 24.4689 18.6841C24.5304 17.6001 24.5304 14.354 24.4689 13.27ZM23.0679 19.8472C22.8393 20.4214 22.3968 20.8638 21.8194 21.0952C20.9548 21.438 18.9033 21.3589 17.9478 21.3589C16.9924 21.3589 14.9379 21.4351 14.0762 21.0952C13.5018 20.8667 13.0592 20.4243 12.8277 19.8472C12.4848 18.9829 12.5639 16.9321 12.5639 15.9771C12.5639 15.022 12.4877 12.9683 12.8277 12.1069C13.0563 11.5327 13.4989 11.0903 14.0762 10.8589C14.9408 10.5161 16.9924 10.5952 17.9478 10.5952C18.9033 10.5952 20.9578 10.519 21.8194 10.8589C22.3938 11.0874 22.8364 11.5298 23.0679 12.1069C23.4108 12.9712 23.3317 15.022 23.3317 15.9771C23.3317 16.9321 23.4108 18.9858 23.0679 19.8472Z" fill="#F8F8F8"/>
</svg>
