<svg width="106" height="32" viewBox="0 0 106 32" fill="none" xmlns="http://www.w3.org/2000/svg">
<g clip-path="url(#clip0_155_3233)">
<g clip-path="url(#clip1_155_3233)">
<mask id="mask0_155_3233" style="mask-type:luminance" maskUnits="userSpaceOnUse" x="0" y="3" width="106" height="26">
<path d="M106 3.5H0V28.5H106V3.5Z" fill="white"/>
</mask>
<g mask="url(#mask0_155_3233)">
<path d="M41.3348 11.0132C40.8682 11.0132 40.4405 10.9339 40.0646 10.7751C39.6887 10.6164 39.3647 10.3915 39.0925 10.0741C38.8203 9.75661 38.6129 9.37302 38.4703 8.91005C38.3277 8.44709 38.25 7.91799 38.25 7.2963C38.25 6.68783 38.3277 6.1455 38.4703 5.66931C38.6129 5.19312 38.8203 4.7963 39.0925 4.47884C39.3647 4.16138 39.6887 3.91005 40.0646 3.75132C40.4405 3.57937 40.8682 3.5 41.3348 3.5C41.9699 3.5 42.5014 3.6455 42.9291 3.91005C43.3439 4.18783 43.6809 4.61111 43.9401 5.16667L42.7865 5.78836C42.6828 5.45767 42.5143 5.20635 42.281 5.00794C42.0477 4.80952 41.7366 4.71693 41.3348 4.71693C40.8293 4.71693 40.4275 4.88889 40.1423 5.2328C39.8442 5.57672 39.7017 6.06614 39.7017 6.68783V7.83862C39.7017 8.47355 39.8442 8.94974 40.1423 9.29365C40.4405 9.62434 40.8423 9.7963 41.3348 9.7963C41.7366 9.7963 42.0607 9.69048 42.3199 9.46561C42.5791 9.24074 42.7606 8.97619 42.8773 8.6455L43.966 9.30688C43.7068 9.84921 43.3698 10.2725 42.9421 10.5767C42.5014 10.8677 41.9699 11.0132 41.3348 11.0132Z" fill="#34A853"/>
<path d="M47.3749 11.0137C46.9082 11.0137 46.4805 10.9343 46.1046 10.7756C45.7287 10.6168 45.4047 10.3787 45.1325 10.0613C44.8603 9.74383 44.6529 9.34701 44.5103 8.88404C44.3548 8.42108 44.29 7.87875 44.29 7.25706C44.29 6.64859 44.3678 6.10626 44.5103 5.6433C44.6659 5.18034 44.8733 4.78351 45.1325 4.46605C45.4047 4.14859 45.7287 3.9105 46.1046 3.75177C46.4805 3.59304 46.9082 3.51367 47.3749 3.51367C47.8415 3.51367 48.2692 3.59304 48.6451 3.75177C49.021 3.9105 49.358 4.14859 49.6302 4.46605C49.9024 4.78351 50.1098 5.18034 50.2523 5.6433C50.3949 6.10626 50.4727 6.64859 50.4727 7.25706C50.4727 7.87875 50.3949 8.42108 50.2523 8.88404C50.1098 9.34701 49.9024 9.74383 49.6302 10.0613C49.358 10.3787 49.0339 10.6168 48.6451 10.7756C48.2692 10.9343 47.8415 11.0137 47.3749 11.0137ZM47.3749 9.79674C47.8804 9.79674 48.2951 9.62478 48.5932 9.28087C48.8914 8.93695 49.0469 8.44754 49.0469 7.82584V6.7015C49.0469 6.07981 48.8914 5.59039 48.5932 5.24648C48.2951 4.90256 47.8804 4.7306 47.3749 4.7306C46.8694 4.7306 46.4546 4.90256 46.1565 5.24648C45.8454 5.59039 45.7028 6.07981 45.7028 6.7015V7.82584C45.7028 8.44754 45.8584 8.93695 46.1565 9.28087C46.4546 9.62478 46.8564 9.79674 47.3749 9.79674Z" fill="#34A853"/>
<path d="M56.7977 5.6821H56.7589L56.2145 6.83289L54.7628 9.58422L53.3111 6.83289L52.7408 5.6821H52.7019V10.8937H51.4316V3.63184H52.9481L54.7757 7.17681H54.8146L56.6163 3.63184H58.068V10.8937H56.7977V5.6821Z" fill="#34A853"/>
<path d="M59.3389 10.8937V3.63184H62.5404C62.8644 3.63184 63.1626 3.68475 63.4218 3.79057C63.681 3.89639 63.9014 4.05512 64.0958 4.25353C64.2773 4.45194 64.4198 4.69004 64.5106 4.96781C64.6013 5.24559 64.6531 5.54983 64.6531 5.88051C64.6531 6.22443 64.6013 6.52866 64.5106 6.80644C64.4198 7.08422 64.2773 7.32231 64.0958 7.5075C63.9143 7.69268 63.694 7.85141 63.4218 7.97046C63.1626 8.07628 62.8644 8.12919 62.5404 8.12919H60.6869V10.8937H59.3389ZM60.6869 6.93871H62.4237C62.683 6.93871 62.8904 6.87258 63.0329 6.72707C63.1885 6.58157 63.2533 6.38316 63.2533 6.11861V5.62919C63.2533 5.36464 63.1755 5.16623 63.0329 5.02072C62.8774 4.88845 62.683 4.80908 62.4237 4.80908H60.6869V6.93871Z" fill="#34A853"/>
<path d="M66.8167 10.8937H65.4688V3.63184H68.6833C69.0074 3.63184 69.3055 3.68475 69.5647 3.79057C69.8239 3.89639 70.0442 4.04189 70.2257 4.2403C70.4071 4.43871 70.5497 4.67681 70.6404 4.95459C70.7441 5.23237 70.7831 5.5366 70.7831 5.88051C70.7831 6.38316 70.6664 6.80644 70.4461 7.17681C70.2258 7.53395 69.8888 7.7985 69.4481 7.94401L70.8997 10.8937H69.3961L68.0741 8.08951H66.8038V10.8937H66.8167ZM68.5406 6.93871C68.7999 6.93871 69.0073 6.87258 69.1498 6.72707C69.3054 6.58157 69.3702 6.38316 69.3702 6.11861V5.62919C69.3702 5.36464 69.2924 5.16623 69.1498 5.02072C68.9943 4.88845 68.7999 4.80908 68.5406 4.80908H66.8038V6.92549H68.5406V6.93871Z" fill="#34A853"/>
<path d="M76.2398 10.8937L75.6694 9.04189H73.1419L72.5846 10.8937H71.2236L73.6086 3.63184H75.2806L77.6396 10.8937H76.2398ZM74.4251 4.87522H74.3733L73.466 7.86464H75.3454L74.4251 4.87522Z" fill="#34A853"/>
<path d="M80.3623 10.8942V9.78307H82.3195V4.62434H82.2287L80.6734 6.50265L79.8438 5.78836L81.6066 3.64551H83.6415V9.7963H85.2747V10.9074H80.3623V10.8942Z" fill="#34A853"/>
<path d="M88.2037 11.0131C87.7501 11.0131 87.3483 10.9338 87.0242 10.7618C86.6872 10.5899 86.415 10.3518 86.1947 10.0343C85.9743 9.71684 85.8188 9.32002 85.7151 8.85706C85.6114 8.39409 85.5596 7.86499 85.5596 7.26975C85.5596 6.67452 85.6114 6.14541 85.7151 5.68245C85.8188 5.21949 85.9873 4.82266 86.1947 4.5052C86.415 4.18774 86.6872 3.93642 87.0242 3.77769C87.3612 3.60573 87.7501 3.52637 88.2037 3.52637C89.1111 3.52637 89.7721 3.85706 90.2128 4.51843C90.6405 5.17981 90.8609 6.10573 90.8609 7.28298C90.8609 8.47346 90.6405 9.38616 90.2128 10.0475C89.7721 10.6825 89.1111 11.0131 88.2037 11.0131ZM88.2037 9.86235C88.6574 9.86235 88.9814 9.69039 89.1629 9.33325C89.3444 8.98933 89.4351 8.51314 89.4351 7.9179V6.60838C89.4351 6.01314 89.3444 5.53695 89.1629 5.19303C88.9814 4.84912 88.6704 4.66393 88.2037 4.66393C87.7501 4.66393 87.426 4.83589 87.2446 5.19303C87.0631 5.53695 86.9724 6.01314 86.9724 6.60838V7.9179C86.9724 8.51314 87.0631 8.98933 87.2446 9.33325C87.426 9.69039 87.7501 9.86235 88.2037 9.86235Z" fill="#34A853"/>
<path d="M93.9196 11.0131C93.4659 11.0131 93.0641 10.9338 92.7401 10.7618C92.4031 10.5899 92.1309 10.3518 91.9106 10.0343C91.6902 9.71684 91.5347 9.32002 91.431 8.85706C91.3273 8.39409 91.2754 7.86499 91.2754 7.26975C91.2754 6.67452 91.3273 6.14541 91.431 5.68245C91.5347 5.21949 91.7032 4.82266 91.9106 4.5052C92.1309 4.18774 92.4031 3.93642 92.7401 3.77769C93.0771 3.60573 93.4659 3.52637 93.9196 3.52637C94.8269 3.52637 95.488 3.85706 95.9287 4.51843C96.3564 5.17981 96.5767 6.10573 96.5767 7.28298C96.5767 8.47346 96.3564 9.38616 95.9287 10.0475C95.488 10.6825 94.814 11.0131 93.9196 11.0131ZM93.9196 9.86235C94.3733 9.86235 94.6973 9.69039 94.8788 9.33325C95.0602 8.98933 95.151 8.51314 95.151 7.9179V6.60838C95.151 6.01314 95.0602 5.53695 94.8788 5.19303C94.6973 4.84912 94.3862 4.66393 93.9196 4.66393C93.4659 4.66393 93.1419 4.83589 92.9604 5.19303C92.779 5.53695 92.6883 6.01314 92.6883 6.60838V7.9179C92.6883 8.51314 92.779 8.98933 92.9604 9.33325C93.1419 9.69039 93.453 9.86235 93.9196 9.86235Z" fill="#34A853"/>
<path d="M98.8841 7.62698C98.3009 7.62698 97.8602 7.45503 97.5621 7.09788C97.2639 6.75397 97.1084 6.2381 97.1084 5.56349C97.1084 4.88889 97.2639 4.37302 97.5621 4.0291C97.8602 3.68519 98.3009 3.5 98.8841 3.5C99.4674 3.5 99.8951 3.67196 100.193 4.0291C100.491 4.37302 100.647 4.88889 100.647 5.56349C100.647 6.2381 100.491 6.75397 100.193 7.09788C99.9081 7.45503 99.4674 7.62698 98.8841 7.62698ZM98.8841 6.83333C99.2989 6.83333 99.5193 6.50265 99.5193 5.84127V5.28571C99.5193 4.62434 99.3119 4.29365 98.8841 4.29365C98.4564 4.29365 98.249 4.62434 98.249 5.28571V5.84127C98.262 6.50265 98.4694 6.83333 98.8841 6.83333ZM98.4046 10.8942L103.343 3.63228H104.522L99.5841 10.8942H98.4046ZM104.03 11.0132C103.46 11.0132 103.019 10.8413 102.721 10.4841C102.423 10.1402 102.267 9.62434 102.267 8.94974C102.267 8.27513 102.423 7.75926 102.721 7.41534C103.019 7.07143 103.46 6.88624 104.03 6.88624C104.613 6.88624 105.054 7.0582 105.352 7.41534C105.65 7.75926 105.806 8.27513 105.806 8.94974C105.806 9.62434 105.65 10.1402 105.352 10.4841C105.041 10.8413 104.6 11.0132 104.03 11.0132ZM104.03 10.2196C104.445 10.2196 104.665 9.88889 104.665 9.22751V8.67196C104.665 8.01058 104.458 7.67989 104.03 7.67989C103.602 7.67989 103.395 8.01058 103.395 8.67196V9.22751C103.395 9.88889 103.602 10.2196 104.03 10.2196Z" fill="#34A853"/>
<path d="M43.2139 28.7245C42.1122 28.7245 41.179 28.5261 40.4272 28.1292C39.6625 27.7324 39.0144 27.2033 38.457 26.5552L40.0902 24.9414C40.5309 25.4573 41.0234 25.8541 41.5678 26.1319C42.1122 26.4097 42.7084 26.5419 43.3695 26.5419C44.1083 26.5419 44.6786 26.3832 45.0545 26.0525C45.4304 25.7218 45.6248 25.2853 45.6248 24.7298C45.6248 24.2933 45.5081 23.9494 45.2619 23.6716C45.0156 23.3938 44.5619 23.2086 43.8879 23.0763L42.6825 22.8912C40.1291 22.4811 38.8588 21.2113 38.8588 19.0949C38.8588 18.5128 38.9625 17.9837 39.1829 17.5076C39.3903 17.0314 39.7013 16.6345 40.1032 16.2906C40.505 15.9599 40.9975 15.6954 41.5549 15.5102C42.1252 15.325 42.7603 15.2324 43.4861 15.2324C44.4453 15.2324 45.2878 15.3912 46.0136 15.7218C46.7395 16.0525 47.3487 16.5287 47.8672 17.1636L46.221 18.7509C45.91 18.3541 45.5211 18.0367 45.0675 17.7853C44.6138 17.534 44.0435 17.415 43.3695 17.415C42.6696 17.415 42.1511 17.5472 41.8011 17.8118C41.4512 18.0763 41.2827 18.4467 41.2827 18.9361C41.2827 19.4255 41.4252 19.7959 41.6974 20.034C41.9826 20.2721 42.4233 20.4441 43.0584 20.5499L44.2509 20.7748C45.547 21.0128 46.5062 21.4361 47.1154 22.0314C47.7375 22.6398 48.0357 23.4864 48.0357 24.571C48.0357 25.1927 47.932 25.7615 47.7116 26.2642C47.5042 26.7668 47.1802 27.2033 46.7784 27.5737C46.3636 27.9441 45.8711 28.2218 45.2748 28.4203C44.6656 28.6319 43.9787 28.7245 43.2139 28.7245Z" fill="#34A853"/>
<path d="M49.6943 28.4994V15.457H58.1194V17.6396H52.1181V20.8009H57.4324V22.9835H52.1181V26.3036H58.1194V28.4861H49.6943V28.4994Z" fill="#34A853"/>
<path d="M68.0871 26.4895H68.0094C67.9057 27.1244 67.5557 27.6535 66.9724 28.09C66.3892 28.5133 65.6244 28.7382 64.6523 28.7382C63.9006 28.7382 63.2006 28.5927 62.5525 28.3149C61.9174 28.0239 61.3601 27.6006 60.8805 27.0318C60.4139 26.463 60.038 25.762 59.7788 24.9286C59.5066 24.0953 59.377 23.1297 59.377 22.0318C59.377 20.9339 59.5195 19.9683 59.7917 19.1218C60.0639 18.2752 60.4528 17.5741 60.9583 17.0054C61.4638 16.4366 62.06 16.0001 62.747 15.6958C63.4469 15.3916 64.2116 15.2461 65.0671 15.2461C66.2207 15.2461 67.1928 15.4974 67.9964 16.0133C68.8 16.5292 69.4352 17.2567 69.9018 18.2223L67.9446 19.3995C67.7113 18.844 67.3743 18.3678 66.9076 17.9974C66.454 17.627 65.8318 17.4419 65.0671 17.4419C64.1209 17.4419 63.3562 17.7329 62.7859 18.3281C62.2155 18.9233 61.9304 19.7964 61.9304 20.9472V23.0371C61.9304 24.1879 62.2155 25.0609 62.7859 25.6561C63.3562 26.2514 64.1339 26.5556 65.093 26.5556C65.4689 26.5556 65.8318 26.5027 66.1559 26.4101C66.4799 26.3175 66.778 26.172 67.0113 25.9868C67.2576 25.8017 67.452 25.5636 67.5946 25.299C67.7372 25.0212 67.815 24.7038 67.815 24.3334V23.4868H65.3004V21.4101H70.1351V28.5133H68.0483V26.4895H68.0871Z" fill="#34A853"/>
<path d="M74.5418 15.457V23.4729C74.5418 24.4914 74.7362 25.2586 75.1121 25.7745C75.501 26.2904 76.149 26.5417 77.0564 26.5417C77.9766 26.5417 78.6247 26.2904 79.0006 25.7745C79.3894 25.2586 79.5709 24.4914 79.5709 23.4729V15.457H81.9558V23.1554C81.9558 24.1211 81.8651 24.9412 81.6966 25.6422C81.5151 26.3433 81.23 26.9253 80.8411 27.375C80.4523 27.838 79.9468 28.1819 79.3117 28.3935C78.6766 28.6052 77.9248 28.7242 77.0304 28.7242C76.1231 28.7242 75.3713 28.6184 74.7492 28.3935C74.127 28.1819 73.6345 27.838 73.2327 27.375C72.8438 26.9121 72.5587 26.33 72.3902 25.6422C72.2217 24.9412 72.1309 24.1211 72.1309 23.1554V15.457H74.5418Z" fill="#34A853"/>
<path d="M86.571 28.4994H84.1602V15.457H89.9151C90.4984 15.457 91.0298 15.5496 91.4835 15.7348C91.9501 15.92 92.3389 16.1978 92.663 16.5417C92.987 16.8988 93.2333 17.3221 93.4148 17.8248C93.5962 18.3274 93.674 18.883 93.674 19.4914C93.674 20.3909 93.4796 21.1581 93.0778 21.8062C92.6759 22.4544 92.0797 22.9173 91.2891 23.1951L93.9073 28.4994H91.2113L88.8263 23.4729H86.5321V28.4994H86.571ZM89.6818 21.4094C90.1484 21.4094 90.5114 21.2771 90.7836 21.0258C91.0557 20.7745 91.1854 20.4041 91.1854 19.9279V19.0681C91.1854 18.592 91.0557 18.2348 90.7836 17.9835C90.5114 17.7322 90.1484 17.6131 89.6818 17.6131H86.571V21.4094H89.6818Z" fill="#34A853"/>
<path d="M103.485 28.4994L102.461 25.1793H97.9249L96.9139 28.4994H94.4512L98.7415 15.457H101.749L106 28.4994H103.485ZM100.219 17.7057H100.128L98.4952 23.0629H101.865L100.219 17.7057Z" fill="#34A853"/>
<path d="M30.1098 3.5H28.9951V29.0291H30.1098V3.5Z" fill="#616161"/>
<path d="M11.471 27.2828C17.8063 27.2828 22.942 22.0417 22.942 15.5765C22.942 9.11123 17.8063 3.87012 11.471 3.87012C5.13575 3.87012 0 9.11123 0 15.5765C0 22.0417 5.13575 27.2828 11.471 27.2828Z" fill="#052535"/>
<path d="M15.23 10.9601C15.0227 10.4706 14.7375 10.0209 14.3616 9.65052C13.9857 9.26693 13.558 8.97592 13.0784 8.76428C12.5729 8.55264 12.0544 8.43359 11.5101 8.43359C10.9657 8.43359 10.4342 8.53941 9.94174 8.76428C9.46217 8.97592 9.03443 9.26693 8.65855 9.65052C8.28266 10.0341 7.9975 10.4706 7.79012 10.9601C7.58273 11.4759 7.46608 12.005 7.46608 12.5606V14.0024H7.37535C7.07723 14.0024 6.83096 14.1082 6.62357 14.3198C6.41619 14.5315 6.3125 14.7828 6.3125 15.087V21.0923C6.3125 21.3966 6.41619 21.6479 6.62357 21.8595C6.83096 22.0712 7.09019 22.177 7.37535 22.177H15.58C15.8781 22.177 16.1244 22.0712 16.3318 21.8595C16.5392 21.6479 16.6429 21.3833 16.6429 21.0923V15.087C16.6429 14.7828 16.5392 14.5315 16.3318 14.3198C16.1244 14.1082 15.8652 14.0024 15.58 14.0024H15.5541V12.5606C15.5541 12.005 15.4504 11.4759 15.23 10.9601ZM13.6098 11.6743C13.7265 11.9653 13.7913 12.2564 13.7913 12.5738V14.0156H9.24182V12.5738C9.24182 12.2564 9.30663 11.9521 9.42328 11.6743C9.53994 11.3966 9.69547 11.1452 9.91582 10.9336C10.1232 10.722 10.3694 10.55 10.6416 10.431C10.9268 10.3119 11.2119 10.2458 11.523 10.2458C11.8341 10.2458 12.1193 10.3119 12.4044 10.431C12.6766 10.55 12.9229 10.7087 13.1303 10.9336C13.3247 11.1452 13.4932 11.3966 13.6098 11.6743ZM13.4802 15.6823L14.556 16.7405L10.6805 20.669L8.38635 18.3145L9.42328 17.2299L10.6676 18.513L13.4802 15.6823Z" fill="#FAFAFA"/>
</g>
</g>
</g>
<defs>
<clipPath id="clip0_155_3233">
<rect width="106" height="32" fill="white"/>
</clipPath>
<clipPath id="clip1_155_3233">
<rect width="106" height="25" fill="white" transform="translate(0 3.5)"/>
</clipPath>
</defs>
</svg>
