<svg width="16" height="15" viewBox="0 0 16 15" fill="none" xmlns="http://www.w3.org/2000/svg">
<path d="M15.3333 1.77778H12.4444V0.666667C12.4444 0.297222 12.1472 0 11.7778 0H4.22222C3.85278 0 3.55556 0.297222 3.55556 0.666667V1.77778H0.666667C0.297222 1.77778 0 2.075 0 2.44444V4C0 4.99167 0.625 6.01111 1.71944 6.79722C2.59444 7.42778 3.65833 7.82778 4.775 7.95556C5.64722 9.40278 6.66667 10 6.66667 10V12H5.33333C4.35278 12 3.55556 12.575 3.55556 13.5556V13.8889C3.55556 14.0722 3.70556 14.2222 3.88889 14.2222H12.1111C12.2944 14.2222 12.4444 14.0722 12.4444 13.8889V13.5556C12.4444 12.575 11.6472 12 10.6667 12H9.33333V10C9.33333 10 10.3528 9.40278 11.225 7.95556C12.3444 7.82778 13.4083 7.42778 14.2806 6.79722C15.3722 6.01111 16 4.99167 16 4V2.44444C16 2.075 15.7028 1.77778 15.3333 1.77778ZM2.75833 5.35556C2.08056 4.86667 1.77778 4.32222 1.77778 4V3.55556H3.56111C3.58889 4.46111 3.72222 5.25556 3.91667 5.95C3.49722 5.80556 3.10556 5.60556 2.75833 5.35556ZM14.2222 4C14.2222 4.44722 13.7306 5.00278 13.2417 5.35556C12.8944 5.60556 12.5 5.80556 12.0806 5.95C12.275 5.25556 12.4083 4.46111 12.4361 3.55556H14.2222V4Z" fill="#FFD700"/>
</svg>
