<svg width="15" height="17" viewBox="0 0 15 17" fill="none" xmlns="http://www.w3.org/2000/svg">
<path d="M13.1001 7.3999H12.3501V5.1499C12.3501 2.53115 10.2188 0.399902 7.6001 0.399902C4.98135 0.399902 2.8501 2.53115 2.8501 5.1499V7.3999H2.1001C1.27197 7.3999 0.600098 8.07178 0.600098 8.8999V14.8999C0.600098 15.728 1.27197 16.3999 2.1001 16.3999H13.1001C13.9282 16.3999 14.6001 15.728 14.6001 14.8999V8.8999C14.6001 8.07178 13.9282 7.3999 13.1001 7.3999ZM9.8501 7.3999H5.3501V5.1499C5.3501 3.90928 6.35947 2.8999 7.6001 2.8999C8.84072 2.8999 9.8501 3.90928 9.8501 5.1499V7.3999Z" fill="#052535"/>
</svg>
