<svg width="15" height="17" viewBox="0 0 15 17" fill="none" xmlns="http://www.w3.org/2000/svg">
<path d="M7.6001 8.80029C9.80947 8.80029 11.6001 7.00967 11.6001 4.80029C11.6001 2.59092 9.80947 0.800293 7.6001 0.800293C5.39072 0.800293 3.6001 2.59092 3.6001 4.80029C3.6001 7.00967 5.39072 8.80029 7.6001 8.80029ZM10.4001 9.80029H9.87822C9.18447 10.119 8.4126 10.3003 7.6001 10.3003C6.7876 10.3003 6.01885 10.119 5.32197 9.80029H4.8001C2.48135 9.80029 0.600098 11.6815 0.600098 14.0003V15.3003C0.600098 16.1284 1.27197 16.8003 2.1001 16.8003H13.1001C13.9282 16.8003 14.6001 16.1284 14.6001 15.3003V14.0003C14.6001 11.6815 12.7188 9.80029 10.4001 9.80029Z" fill="#052535"/>
</svg>
