<svg width="50" height="50" viewBox="0 0 50 50" fill="none" xmlns="http://www.w3.org/2000/svg">
<path d="M8.33317 41.6666C7.18734 41.6666 6.20643 41.2586 5.39046 40.4426C4.57449 39.6267 4.1665 38.6458 4.1665 37.4999V30.4687C4.1665 30.0867 4.28803 29.7569 4.53109 29.4791C4.77414 29.2013 5.08664 29.0277 5.46859 28.9583C6.30192 28.6805 6.98768 28.177 7.52588 27.4478C8.06407 26.7187 8.33317 25.9027 8.33317 24.9999C8.33317 24.0971 8.06407 23.2812 7.52588 22.552C6.98768 21.8228 6.30192 21.3194 5.46859 21.0416C5.08664 20.9721 4.77414 20.7985 4.53109 20.5208C4.28803 20.243 4.1665 19.9131 4.1665 19.5312V12.4999C4.1665 11.3541 4.57449 10.3732 5.39046 9.55721C6.20643 8.74124 7.18734 8.33325 8.33317 8.33325H41.6665C42.8123 8.33325 43.7932 8.74124 44.6092 9.55721C45.4252 10.3732 45.8332 11.3541 45.8332 12.4999V19.5312C45.8332 19.9131 45.7116 20.243 45.4686 20.5208C45.2255 20.7985 44.913 20.9721 44.5311 21.0416C43.6978 21.3194 43.012 21.8228 42.4738 22.552C41.9356 23.2812 41.6665 24.0971 41.6665 24.9999C41.6665 25.9027 41.9356 26.7187 42.4738 27.4478C43.012 28.177 43.6978 28.6805 44.5311 28.9583C44.913 29.0277 45.2255 29.2013 45.4686 29.4791C45.7116 29.7569 45.8332 30.0867 45.8332 30.4687V37.4999C45.8332 38.6458 45.4252 39.6267 44.6092 40.4426C43.7932 41.2586 42.8123 41.6666 41.6665 41.6666H8.33317ZM24.9998 35.4166C25.5901 35.4166 26.0849 35.2169 26.4842 34.8176C26.8835 34.4183 27.0832 33.9235 27.0832 33.3333C27.0832 32.743 26.8835 32.2482 26.4842 31.8489C26.0849 31.4496 25.5901 31.2499 24.9998 31.2499C24.4096 31.2499 23.9148 31.4496 23.5155 31.8489C23.1162 32.2482 22.9165 32.743 22.9165 33.3333C22.9165 33.9235 23.1162 34.4183 23.5155 34.8176C23.9148 35.2169 24.4096 35.4166 24.9998 35.4166ZM24.9998 27.0833C25.5901 27.0833 26.0849 26.8836 26.4842 26.4843C26.8835 26.085 27.0832 25.5902 27.0832 24.9999C27.0832 24.4096 26.8835 23.9148 26.4842 23.5155C26.0849 23.1162 25.5901 22.9166 24.9998 22.9166C24.4096 22.9166 23.9148 23.1162 23.5155 23.5155C23.1162 23.9148 22.9165 24.4096 22.9165 24.9999C22.9165 25.5902 23.1162 26.085 23.5155 26.4843C23.9148 26.8836 24.4096 27.0833 24.9998 27.0833ZM24.9998 18.7499C25.5901 18.7499 26.0849 18.5503 26.4842 18.151C26.8835 17.7517 27.0832 17.2569 27.0832 16.6666C27.0832 16.0763 26.8835 15.5815 26.4842 15.1822C26.0849 14.7829 25.5901 14.5833 24.9998 14.5833C24.4096 14.5833 23.9148 14.7829 23.5155 15.1822C23.1162 15.5815 22.9165 16.0763 22.9165 16.6666C22.9165 17.2569 23.1162 17.7517 23.5155 18.151C23.9148 18.5503 24.4096 18.7499 24.9998 18.7499Z" fill="#34A853"/>
</svg>
