<svg width="32" height="32" viewBox="0 0 32 32" fill="none" xmlns="http://www.w3.org/2000/svg">
<path d="M5.33317 26.6666C4.59984 26.6666 3.97206 26.4055 3.44984 25.8833C2.92761 25.361 2.6665 24.7333 2.6665 23.9999V19.4999C2.6665 19.2555 2.74428 19.0444 2.89984 18.8666C3.05539 18.6888 3.25539 18.5777 3.49984 18.5333C4.03317 18.3555 4.47206 18.0333 4.8165 17.5666C5.16095 17.0999 5.33317 16.5777 5.33317 15.9999C5.33317 15.4221 5.16095 14.8999 4.8165 14.4333C4.47206 13.9666 4.03317 13.6444 3.49984 13.4666C3.25539 13.4221 3.05539 13.311 2.89984 13.1333C2.74428 12.9555 2.6665 12.7444 2.6665 12.4999V7.99992C2.6665 7.26659 2.92761 6.63881 3.44984 6.11659C3.97206 5.59436 4.59984 5.33325 5.33317 5.33325H26.6665C27.3998 5.33325 28.0276 5.59436 28.5498 6.11659C29.0721 6.63881 29.3332 7.26659 29.3332 7.99992V12.4999C29.3332 12.7444 29.2554 12.9555 29.0998 13.1333C28.9443 13.311 28.7443 13.4221 28.4998 13.4666C27.9665 13.6444 27.5276 13.9666 27.1832 14.4333C26.8387 14.8999 26.6665 15.4221 26.6665 15.9999C26.6665 16.5777 26.8387 17.0999 27.1832 17.5666C27.5276 18.0333 27.9665 18.3555 28.4998 18.5333C28.7443 18.5777 28.9443 18.6888 29.0998 18.8666C29.2554 19.0444 29.3332 19.2555 29.3332 19.4999V23.9999C29.3332 24.7333 29.0721 25.361 28.5498 25.8833C28.0276 26.4055 27.3998 26.6666 26.6665 26.6666H5.33317ZM15.9998 22.6666C16.3776 22.6666 16.6943 22.5388 16.9498 22.2833C17.2054 22.0277 17.3332 21.711 17.3332 21.3333C17.3332 20.9555 17.2054 20.6388 16.9498 20.3833C16.6943 20.1277 16.3776 19.9999 15.9998 19.9999C15.6221 19.9999 15.3054 20.1277 15.0498 20.3833C14.7943 20.6388 14.6665 20.9555 14.6665 21.3333C14.6665 21.711 14.7943 22.0277 15.0498 22.2833C15.3054 22.5388 15.6221 22.6666 15.9998 22.6666ZM15.9998 17.3333C16.3776 17.3333 16.6943 17.2055 16.9498 16.9499C17.2054 16.6944 17.3332 16.3777 17.3332 15.9999C17.3332 15.6221 17.2054 15.3055 16.9498 15.0499C16.6943 14.7944 16.3776 14.6666 15.9998 14.6666C15.6221 14.6666 15.3054 14.7944 15.0498 15.0499C14.7943 15.3055 14.6665 15.6221 14.6665 15.9999C14.6665 16.3777 14.7943 16.6944 15.0498 16.9499C15.3054 17.2055 15.6221 17.3333 15.9998 17.3333ZM15.9998 11.9999C16.3776 11.9999 16.6943 11.8721 16.9498 11.6166C17.2054 11.361 17.3332 11.0444 17.3332 10.6666C17.3332 10.2888 17.2054 9.97214 16.9498 9.71659C16.6943 9.46103 16.3776 9.33325 15.9998 9.33325C15.6221 9.33325 15.3054 9.46103 15.0498 9.71659C14.7943 9.97214 14.6665 10.2888 14.6665 10.6666C14.6665 11.0444 14.7943 11.361 15.0498 11.6166C15.3054 11.8721 15.6221 11.9999 15.9998 11.9999Z" fill="#34A853"/>
</svg>
